G04 #@! TF.GenerationSoftware,KiCad,Pcbnew,(5.1.12)-1*
G04 #@! TF.CreationDate,2021-12-26T01:52:18+01:00*
G04 #@! TF.ProjectId,esp32,65737033-322e-46b6-9963-61645f706362,rev?*
G04 #@! TF.SameCoordinates,Original*
G04 #@! TF.FileFunction,Paste,Top*
G04 #@! TF.FilePolarity,Positive*
%FSLAX46Y46*%
G04 Gerber Fmt 4.6, Leading zero omitted, Abs format (unit mm)*
G04 Created by KiCad (PCBNEW (5.1.12)-1) date 2021-12-26 01:52:18*
%MOMM*%
%LPD*%
G01*
G04 APERTURE LIST*
%ADD10C,0.001000*%
G04 APERTURE END LIST*
D10*
G36*
X141000000Y-110250000D02*
G01*
X141000000Y-110000000D01*
X139900000Y-110000000D01*
X139861000Y-110001000D01*
X139822000Y-110004000D01*
X139783000Y-110009000D01*
X139744000Y-110016000D01*
X139706000Y-110026000D01*
X139668000Y-110037000D01*
X139631000Y-110050000D01*
X139595000Y-110065000D01*
X139560000Y-110082000D01*
X139525000Y-110100000D01*
X139492000Y-110121000D01*
X139459000Y-110143000D01*
X139428000Y-110167000D01*
X139398000Y-110193000D01*
X139370000Y-110220000D01*
X139343000Y-110248000D01*
X139317000Y-110278000D01*
X139293000Y-110309000D01*
X139271000Y-110342000D01*
X139250000Y-110375000D01*
X139232000Y-110410000D01*
X139215000Y-110445000D01*
X139200000Y-110481000D01*
X139187000Y-110518000D01*
X139176000Y-110556000D01*
X139166000Y-110594000D01*
X139159000Y-110633000D01*
X139154000Y-110672000D01*
X139151000Y-110711000D01*
X139150000Y-110750000D01*
X139151000Y-110789000D01*
X139154000Y-110828000D01*
X139159000Y-110867000D01*
X139166000Y-110906000D01*
X139176000Y-110944000D01*
X139187000Y-110982000D01*
X139200000Y-111019000D01*
X139215000Y-111055000D01*
X139232000Y-111090000D01*
X139250000Y-111125000D01*
X139271000Y-111158000D01*
X139293000Y-111191000D01*
X139317000Y-111222000D01*
X139343000Y-111252000D01*
X139370000Y-111280000D01*
X139398000Y-111307000D01*
X139428000Y-111333000D01*
X139459000Y-111357000D01*
X139492000Y-111379000D01*
X139525000Y-111400000D01*
X139560000Y-111418000D01*
X139595000Y-111435000D01*
X139631000Y-111450000D01*
X139668000Y-111463000D01*
X139706000Y-111474000D01*
X139744000Y-111484000D01*
X139783000Y-111491000D01*
X139822000Y-111496000D01*
X139861000Y-111499000D01*
X139900000Y-111500000D01*
X141000000Y-111500000D01*
X141000000Y-111250000D01*
X139900000Y-111250000D01*
X139874000Y-111249000D01*
X139848000Y-111247000D01*
X139822000Y-111244000D01*
X139796000Y-111239000D01*
X139771000Y-111233000D01*
X139745000Y-111226000D01*
X139721000Y-111217000D01*
X139697000Y-111207000D01*
X139673000Y-111196000D01*
X139650000Y-111183000D01*
X139628000Y-111169000D01*
X139606000Y-111155000D01*
X139585000Y-111139000D01*
X139565000Y-111122000D01*
X139546000Y-111104000D01*
X139528000Y-111085000D01*
X139511000Y-111065000D01*
X139495000Y-111044000D01*
X139481000Y-111022000D01*
X139467000Y-111000000D01*
X139454000Y-110977000D01*
X139443000Y-110953000D01*
X139433000Y-110929000D01*
X139424000Y-110905000D01*
X139417000Y-110879000D01*
X139411000Y-110854000D01*
X139406000Y-110828000D01*
X139403000Y-110802000D01*
X139401000Y-110776000D01*
X139400000Y-110750000D01*
X139401000Y-110724000D01*
X139403000Y-110698000D01*
X139406000Y-110672000D01*
X139411000Y-110646000D01*
X139417000Y-110621000D01*
X139424000Y-110595000D01*
X139433000Y-110571000D01*
X139443000Y-110547000D01*
X139454000Y-110523000D01*
X139467000Y-110500000D01*
X139481000Y-110478000D01*
X139495000Y-110456000D01*
X139511000Y-110435000D01*
X139528000Y-110415000D01*
X139546000Y-110396000D01*
X139565000Y-110378000D01*
X139585000Y-110361000D01*
X139606000Y-110345000D01*
X139628000Y-110331000D01*
X139650000Y-110317000D01*
X139673000Y-110304000D01*
X139697000Y-110293000D01*
X139721000Y-110283000D01*
X139745000Y-110274000D01*
X139771000Y-110267000D01*
X139796000Y-110261000D01*
X139822000Y-110256000D01*
X139848000Y-110253000D01*
X139874000Y-110251000D01*
X139900000Y-110250000D01*
X141000000Y-110250000D01*
G37*
X141000000Y-110250000D02*
X141000000Y-110000000D01*
X139900000Y-110000000D01*
X139861000Y-110001000D01*
X139822000Y-110004000D01*
X139783000Y-110009000D01*
X139744000Y-110016000D01*
X139706000Y-110026000D01*
X139668000Y-110037000D01*
X139631000Y-110050000D01*
X139595000Y-110065000D01*
X139560000Y-110082000D01*
X139525000Y-110100000D01*
X139492000Y-110121000D01*
X139459000Y-110143000D01*
X139428000Y-110167000D01*
X139398000Y-110193000D01*
X139370000Y-110220000D01*
X139343000Y-110248000D01*
X139317000Y-110278000D01*
X139293000Y-110309000D01*
X139271000Y-110342000D01*
X139250000Y-110375000D01*
X139232000Y-110410000D01*
X139215000Y-110445000D01*
X139200000Y-110481000D01*
X139187000Y-110518000D01*
X139176000Y-110556000D01*
X139166000Y-110594000D01*
X139159000Y-110633000D01*
X139154000Y-110672000D01*
X139151000Y-110711000D01*
X139150000Y-110750000D01*
X139151000Y-110789000D01*
X139154000Y-110828000D01*
X139159000Y-110867000D01*
X139166000Y-110906000D01*
X139176000Y-110944000D01*
X139187000Y-110982000D01*
X139200000Y-111019000D01*
X139215000Y-111055000D01*
X139232000Y-111090000D01*
X139250000Y-111125000D01*
X139271000Y-111158000D01*
X139293000Y-111191000D01*
X139317000Y-111222000D01*
X139343000Y-111252000D01*
X139370000Y-111280000D01*
X139398000Y-111307000D01*
X139428000Y-111333000D01*
X139459000Y-111357000D01*
X139492000Y-111379000D01*
X139525000Y-111400000D01*
X139560000Y-111418000D01*
X139595000Y-111435000D01*
X139631000Y-111450000D01*
X139668000Y-111463000D01*
X139706000Y-111474000D01*
X139744000Y-111484000D01*
X139783000Y-111491000D01*
X139822000Y-111496000D01*
X139861000Y-111499000D01*
X139900000Y-111500000D01*
X141000000Y-111500000D01*
X141000000Y-111250000D01*
X139900000Y-111250000D01*
X139874000Y-111249000D01*
X139848000Y-111247000D01*
X139822000Y-111244000D01*
X139796000Y-111239000D01*
X139771000Y-111233000D01*
X139745000Y-111226000D01*
X139721000Y-111217000D01*
X139697000Y-111207000D01*
X139673000Y-111196000D01*
X139650000Y-111183000D01*
X139628000Y-111169000D01*
X139606000Y-111155000D01*
X139585000Y-111139000D01*
X139565000Y-111122000D01*
X139546000Y-111104000D01*
X139528000Y-111085000D01*
X139511000Y-111065000D01*
X139495000Y-111044000D01*
X139481000Y-111022000D01*
X139467000Y-111000000D01*
X139454000Y-110977000D01*
X139443000Y-110953000D01*
X139433000Y-110929000D01*
X139424000Y-110905000D01*
X139417000Y-110879000D01*
X139411000Y-110854000D01*
X139406000Y-110828000D01*
X139403000Y-110802000D01*
X139401000Y-110776000D01*
X139400000Y-110750000D01*
X139401000Y-110724000D01*
X139403000Y-110698000D01*
X139406000Y-110672000D01*
X139411000Y-110646000D01*
X139417000Y-110621000D01*
X139424000Y-110595000D01*
X139433000Y-110571000D01*
X139443000Y-110547000D01*
X139454000Y-110523000D01*
X139467000Y-110500000D01*
X139481000Y-110478000D01*
X139495000Y-110456000D01*
X139511000Y-110435000D01*
X139528000Y-110415000D01*
X139546000Y-110396000D01*
X139565000Y-110378000D01*
X139585000Y-110361000D01*
X139606000Y-110345000D01*
X139628000Y-110331000D01*
X139650000Y-110317000D01*
X139673000Y-110304000D01*
X139697000Y-110293000D01*
X139721000Y-110283000D01*
X139745000Y-110274000D01*
X139771000Y-110267000D01*
X139796000Y-110261000D01*
X139822000Y-110256000D01*
X139848000Y-110253000D01*
X139874000Y-110251000D01*
X139900000Y-110250000D01*
X141000000Y-110250000D01*
G36*
X141000000Y-111250000D02*
G01*
X141000000Y-111500000D01*
X142100000Y-111500000D01*
X142139000Y-111499000D01*
X142178000Y-111496000D01*
X142217000Y-111491000D01*
X142256000Y-111484000D01*
X142294000Y-111474000D01*
X142332000Y-111463000D01*
X142369000Y-111450000D01*
X142405000Y-111435000D01*
X142440000Y-111418000D01*
X142475000Y-111400000D01*
X142508000Y-111379000D01*
X142541000Y-111357000D01*
X142572000Y-111333000D01*
X142602000Y-111307000D01*
X142630000Y-111280000D01*
X142657000Y-111252000D01*
X142683000Y-111222000D01*
X142707000Y-111191000D01*
X142729000Y-111158000D01*
X142750000Y-111125000D01*
X142768000Y-111090000D01*
X142785000Y-111055000D01*
X142800000Y-111019000D01*
X142813000Y-110982000D01*
X142824000Y-110944000D01*
X142834000Y-110906000D01*
X142841000Y-110867000D01*
X142846000Y-110828000D01*
X142849000Y-110789000D01*
X142850000Y-110750000D01*
X142849000Y-110711000D01*
X142846000Y-110672000D01*
X142841000Y-110633000D01*
X142834000Y-110594000D01*
X142824000Y-110556000D01*
X142813000Y-110518000D01*
X142800000Y-110481000D01*
X142785000Y-110445000D01*
X142768000Y-110410000D01*
X142750000Y-110375000D01*
X142729000Y-110342000D01*
X142707000Y-110309000D01*
X142683000Y-110278000D01*
X142657000Y-110248000D01*
X142630000Y-110220000D01*
X142602000Y-110193000D01*
X142572000Y-110167000D01*
X142541000Y-110143000D01*
X142508000Y-110121000D01*
X142475000Y-110100000D01*
X142440000Y-110082000D01*
X142405000Y-110065000D01*
X142369000Y-110050000D01*
X142332000Y-110037000D01*
X142294000Y-110026000D01*
X142256000Y-110016000D01*
X142217000Y-110009000D01*
X142178000Y-110004000D01*
X142139000Y-110001000D01*
X142100000Y-110000000D01*
X141000000Y-110000000D01*
X141000000Y-110250000D01*
X142100000Y-110250000D01*
X142126000Y-110251000D01*
X142152000Y-110253000D01*
X142178000Y-110256000D01*
X142204000Y-110261000D01*
X142229000Y-110267000D01*
X142255000Y-110274000D01*
X142279000Y-110283000D01*
X142303000Y-110293000D01*
X142327000Y-110304000D01*
X142350000Y-110317000D01*
X142372000Y-110331000D01*
X142394000Y-110345000D01*
X142415000Y-110361000D01*
X142435000Y-110378000D01*
X142454000Y-110396000D01*
X142472000Y-110415000D01*
X142489000Y-110435000D01*
X142505000Y-110456000D01*
X142519000Y-110478000D01*
X142533000Y-110500000D01*
X142546000Y-110523000D01*
X142557000Y-110547000D01*
X142567000Y-110571000D01*
X142576000Y-110595000D01*
X142583000Y-110621000D01*
X142589000Y-110646000D01*
X142594000Y-110672000D01*
X142597000Y-110698000D01*
X142599000Y-110724000D01*
X142600000Y-110750000D01*
X142599000Y-110776000D01*
X142597000Y-110802000D01*
X142594000Y-110828000D01*
X142589000Y-110854000D01*
X142583000Y-110879000D01*
X142576000Y-110905000D01*
X142567000Y-110929000D01*
X142557000Y-110953000D01*
X142546000Y-110977000D01*
X142533000Y-111000000D01*
X142519000Y-111022000D01*
X142505000Y-111044000D01*
X142489000Y-111065000D01*
X142472000Y-111085000D01*
X142454000Y-111104000D01*
X142435000Y-111122000D01*
X142415000Y-111139000D01*
X142394000Y-111155000D01*
X142372000Y-111169000D01*
X142350000Y-111183000D01*
X142327000Y-111196000D01*
X142303000Y-111207000D01*
X142279000Y-111217000D01*
X142255000Y-111226000D01*
X142229000Y-111233000D01*
X142204000Y-111239000D01*
X142178000Y-111244000D01*
X142152000Y-111247000D01*
X142126000Y-111249000D01*
X142100000Y-111250000D01*
X141000000Y-111250000D01*
G37*
X141000000Y-111250000D02*
X141000000Y-111500000D01*
X142100000Y-111500000D01*
X142139000Y-111499000D01*
X142178000Y-111496000D01*
X142217000Y-111491000D01*
X142256000Y-111484000D01*
X142294000Y-111474000D01*
X142332000Y-111463000D01*
X142369000Y-111450000D01*
X142405000Y-111435000D01*
X142440000Y-111418000D01*
X142475000Y-111400000D01*
X142508000Y-111379000D01*
X142541000Y-111357000D01*
X142572000Y-111333000D01*
X142602000Y-111307000D01*
X142630000Y-111280000D01*
X142657000Y-111252000D01*
X142683000Y-111222000D01*
X142707000Y-111191000D01*
X142729000Y-111158000D01*
X142750000Y-111125000D01*
X142768000Y-111090000D01*
X142785000Y-111055000D01*
X142800000Y-111019000D01*
X142813000Y-110982000D01*
X142824000Y-110944000D01*
X142834000Y-110906000D01*
X142841000Y-110867000D01*
X142846000Y-110828000D01*
X142849000Y-110789000D01*
X142850000Y-110750000D01*
X142849000Y-110711000D01*
X142846000Y-110672000D01*
X142841000Y-110633000D01*
X142834000Y-110594000D01*
X142824000Y-110556000D01*
X142813000Y-110518000D01*
X142800000Y-110481000D01*
X142785000Y-110445000D01*
X142768000Y-110410000D01*
X142750000Y-110375000D01*
X142729000Y-110342000D01*
X142707000Y-110309000D01*
X142683000Y-110278000D01*
X142657000Y-110248000D01*
X142630000Y-110220000D01*
X142602000Y-110193000D01*
X142572000Y-110167000D01*
X142541000Y-110143000D01*
X142508000Y-110121000D01*
X142475000Y-110100000D01*
X142440000Y-110082000D01*
X142405000Y-110065000D01*
X142369000Y-110050000D01*
X142332000Y-110037000D01*
X142294000Y-110026000D01*
X142256000Y-110016000D01*
X142217000Y-110009000D01*
X142178000Y-110004000D01*
X142139000Y-110001000D01*
X142100000Y-110000000D01*
X141000000Y-110000000D01*
X141000000Y-110250000D01*
X142100000Y-110250000D01*
X142126000Y-110251000D01*
X142152000Y-110253000D01*
X142178000Y-110256000D01*
X142204000Y-110261000D01*
X142229000Y-110267000D01*
X142255000Y-110274000D01*
X142279000Y-110283000D01*
X142303000Y-110293000D01*
X142327000Y-110304000D01*
X142350000Y-110317000D01*
X142372000Y-110331000D01*
X142394000Y-110345000D01*
X142415000Y-110361000D01*
X142435000Y-110378000D01*
X142454000Y-110396000D01*
X142472000Y-110415000D01*
X142489000Y-110435000D01*
X142505000Y-110456000D01*
X142519000Y-110478000D01*
X142533000Y-110500000D01*
X142546000Y-110523000D01*
X142557000Y-110547000D01*
X142567000Y-110571000D01*
X142576000Y-110595000D01*
X142583000Y-110621000D01*
X142589000Y-110646000D01*
X142594000Y-110672000D01*
X142597000Y-110698000D01*
X142599000Y-110724000D01*
X142600000Y-110750000D01*
X142599000Y-110776000D01*
X142597000Y-110802000D01*
X142594000Y-110828000D01*
X142589000Y-110854000D01*
X142583000Y-110879000D01*
X142576000Y-110905000D01*
X142567000Y-110929000D01*
X142557000Y-110953000D01*
X142546000Y-110977000D01*
X142533000Y-111000000D01*
X142519000Y-111022000D01*
X142505000Y-111044000D01*
X142489000Y-111065000D01*
X142472000Y-111085000D01*
X142454000Y-111104000D01*
X142435000Y-111122000D01*
X142415000Y-111139000D01*
X142394000Y-111155000D01*
X142372000Y-111169000D01*
X142350000Y-111183000D01*
X142327000Y-111196000D01*
X142303000Y-111207000D01*
X142279000Y-111217000D01*
X142255000Y-111226000D01*
X142229000Y-111233000D01*
X142204000Y-111239000D01*
X142178000Y-111244000D01*
X142152000Y-111247000D01*
X142126000Y-111249000D01*
X142100000Y-111250000D01*
X141000000Y-111250000D01*
G36*
X145300000Y-107350000D02*
G01*
X145050000Y-107350000D01*
X145050000Y-108450000D01*
X145051000Y-108489000D01*
X145054000Y-108528000D01*
X145059000Y-108567000D01*
X145066000Y-108606000D01*
X145076000Y-108644000D01*
X145087000Y-108682000D01*
X145100000Y-108719000D01*
X145115000Y-108755000D01*
X145132000Y-108790000D01*
X145150000Y-108825000D01*
X145171000Y-108858000D01*
X145193000Y-108891000D01*
X145217000Y-108922000D01*
X145243000Y-108952000D01*
X145270000Y-108980000D01*
X145298000Y-109007000D01*
X145328000Y-109033000D01*
X145359000Y-109057000D01*
X145392000Y-109079000D01*
X145425000Y-109100000D01*
X145460000Y-109118000D01*
X145495000Y-109135000D01*
X145531000Y-109150000D01*
X145568000Y-109163000D01*
X145606000Y-109174000D01*
X145644000Y-109184000D01*
X145683000Y-109191000D01*
X145722000Y-109196000D01*
X145761000Y-109199000D01*
X145800000Y-109200000D01*
X145839000Y-109199000D01*
X145878000Y-109196000D01*
X145917000Y-109191000D01*
X145956000Y-109184000D01*
X145994000Y-109174000D01*
X146032000Y-109163000D01*
X146069000Y-109150000D01*
X146105000Y-109135000D01*
X146140000Y-109118000D01*
X146175000Y-109100000D01*
X146208000Y-109079000D01*
X146241000Y-109057000D01*
X146272000Y-109033000D01*
X146302000Y-109007000D01*
X146330000Y-108980000D01*
X146357000Y-108952000D01*
X146383000Y-108922000D01*
X146407000Y-108891000D01*
X146429000Y-108858000D01*
X146450000Y-108825000D01*
X146468000Y-108790000D01*
X146485000Y-108755000D01*
X146500000Y-108719000D01*
X146513000Y-108682000D01*
X146524000Y-108644000D01*
X146534000Y-108606000D01*
X146541000Y-108567000D01*
X146546000Y-108528000D01*
X146549000Y-108489000D01*
X146550000Y-108450000D01*
X146550000Y-107350000D01*
X146300000Y-107350000D01*
X146300000Y-108450000D01*
X146299000Y-108476000D01*
X146297000Y-108502000D01*
X146294000Y-108528000D01*
X146289000Y-108554000D01*
X146283000Y-108579000D01*
X146276000Y-108605000D01*
X146267000Y-108629000D01*
X146257000Y-108653000D01*
X146246000Y-108677000D01*
X146233000Y-108700000D01*
X146219000Y-108722000D01*
X146205000Y-108744000D01*
X146189000Y-108765000D01*
X146172000Y-108785000D01*
X146154000Y-108804000D01*
X146135000Y-108822000D01*
X146115000Y-108839000D01*
X146094000Y-108855000D01*
X146072000Y-108869000D01*
X146050000Y-108883000D01*
X146027000Y-108896000D01*
X146003000Y-108907000D01*
X145979000Y-108917000D01*
X145955000Y-108926000D01*
X145929000Y-108933000D01*
X145904000Y-108939000D01*
X145878000Y-108944000D01*
X145852000Y-108947000D01*
X145826000Y-108949000D01*
X145800000Y-108950000D01*
X145774000Y-108949000D01*
X145748000Y-108947000D01*
X145722000Y-108944000D01*
X145696000Y-108939000D01*
X145671000Y-108933000D01*
X145645000Y-108926000D01*
X145621000Y-108917000D01*
X145597000Y-108907000D01*
X145573000Y-108896000D01*
X145550000Y-108883000D01*
X145528000Y-108869000D01*
X145506000Y-108855000D01*
X145485000Y-108839000D01*
X145465000Y-108822000D01*
X145446000Y-108804000D01*
X145428000Y-108785000D01*
X145411000Y-108765000D01*
X145395000Y-108744000D01*
X145381000Y-108722000D01*
X145367000Y-108700000D01*
X145354000Y-108677000D01*
X145343000Y-108653000D01*
X145333000Y-108629000D01*
X145324000Y-108605000D01*
X145317000Y-108579000D01*
X145311000Y-108554000D01*
X145306000Y-108528000D01*
X145303000Y-108502000D01*
X145301000Y-108476000D01*
X145300000Y-108450000D01*
X145300000Y-107350000D01*
G37*
X145300000Y-107350000D02*
X145050000Y-107350000D01*
X145050000Y-108450000D01*
X145051000Y-108489000D01*
X145054000Y-108528000D01*
X145059000Y-108567000D01*
X145066000Y-108606000D01*
X145076000Y-108644000D01*
X145087000Y-108682000D01*
X145100000Y-108719000D01*
X145115000Y-108755000D01*
X145132000Y-108790000D01*
X145150000Y-108825000D01*
X145171000Y-108858000D01*
X145193000Y-108891000D01*
X145217000Y-108922000D01*
X145243000Y-108952000D01*
X145270000Y-108980000D01*
X145298000Y-109007000D01*
X145328000Y-109033000D01*
X145359000Y-109057000D01*
X145392000Y-109079000D01*
X145425000Y-109100000D01*
X145460000Y-109118000D01*
X145495000Y-109135000D01*
X145531000Y-109150000D01*
X145568000Y-109163000D01*
X145606000Y-109174000D01*
X145644000Y-109184000D01*
X145683000Y-109191000D01*
X145722000Y-109196000D01*
X145761000Y-109199000D01*
X145800000Y-109200000D01*
X145839000Y-109199000D01*
X145878000Y-109196000D01*
X145917000Y-109191000D01*
X145956000Y-109184000D01*
X145994000Y-109174000D01*
X146032000Y-109163000D01*
X146069000Y-109150000D01*
X146105000Y-109135000D01*
X146140000Y-109118000D01*
X146175000Y-109100000D01*
X146208000Y-109079000D01*
X146241000Y-109057000D01*
X146272000Y-109033000D01*
X146302000Y-109007000D01*
X146330000Y-108980000D01*
X146357000Y-108952000D01*
X146383000Y-108922000D01*
X146407000Y-108891000D01*
X146429000Y-108858000D01*
X146450000Y-108825000D01*
X146468000Y-108790000D01*
X146485000Y-108755000D01*
X146500000Y-108719000D01*
X146513000Y-108682000D01*
X146524000Y-108644000D01*
X146534000Y-108606000D01*
X146541000Y-108567000D01*
X146546000Y-108528000D01*
X146549000Y-108489000D01*
X146550000Y-108450000D01*
X146550000Y-107350000D01*
X146300000Y-107350000D01*
X146300000Y-108450000D01*
X146299000Y-108476000D01*
X146297000Y-108502000D01*
X146294000Y-108528000D01*
X146289000Y-108554000D01*
X146283000Y-108579000D01*
X146276000Y-108605000D01*
X146267000Y-108629000D01*
X146257000Y-108653000D01*
X146246000Y-108677000D01*
X146233000Y-108700000D01*
X146219000Y-108722000D01*
X146205000Y-108744000D01*
X146189000Y-108765000D01*
X146172000Y-108785000D01*
X146154000Y-108804000D01*
X146135000Y-108822000D01*
X146115000Y-108839000D01*
X146094000Y-108855000D01*
X146072000Y-108869000D01*
X146050000Y-108883000D01*
X146027000Y-108896000D01*
X146003000Y-108907000D01*
X145979000Y-108917000D01*
X145955000Y-108926000D01*
X145929000Y-108933000D01*
X145904000Y-108939000D01*
X145878000Y-108944000D01*
X145852000Y-108947000D01*
X145826000Y-108949000D01*
X145800000Y-108950000D01*
X145774000Y-108949000D01*
X145748000Y-108947000D01*
X145722000Y-108944000D01*
X145696000Y-108939000D01*
X145671000Y-108933000D01*
X145645000Y-108926000D01*
X145621000Y-108917000D01*
X145597000Y-108907000D01*
X145573000Y-108896000D01*
X145550000Y-108883000D01*
X145528000Y-108869000D01*
X145506000Y-108855000D01*
X145485000Y-108839000D01*
X145465000Y-108822000D01*
X145446000Y-108804000D01*
X145428000Y-108785000D01*
X145411000Y-108765000D01*
X145395000Y-108744000D01*
X145381000Y-108722000D01*
X145367000Y-108700000D01*
X145354000Y-108677000D01*
X145343000Y-108653000D01*
X145333000Y-108629000D01*
X145324000Y-108605000D01*
X145317000Y-108579000D01*
X145311000Y-108554000D01*
X145306000Y-108528000D01*
X145303000Y-108502000D01*
X145301000Y-108476000D01*
X145300000Y-108450000D01*
X145300000Y-107350000D01*
G36*
X146300000Y-107350000D02*
G01*
X146550000Y-107350000D01*
X146550000Y-106250000D01*
X146549000Y-106211000D01*
X146546000Y-106172000D01*
X146541000Y-106133000D01*
X146534000Y-106094000D01*
X146524000Y-106056000D01*
X146513000Y-106018000D01*
X146500000Y-105981000D01*
X146485000Y-105945000D01*
X146468000Y-105910000D01*
X146450000Y-105875000D01*
X146429000Y-105842000D01*
X146407000Y-105809000D01*
X146383000Y-105778000D01*
X146357000Y-105748000D01*
X146330000Y-105720000D01*
X146302000Y-105693000D01*
X146272000Y-105667000D01*
X146241000Y-105643000D01*
X146208000Y-105621000D01*
X146175000Y-105600000D01*
X146140000Y-105582000D01*
X146105000Y-105565000D01*
X146069000Y-105550000D01*
X146032000Y-105537000D01*
X145994000Y-105526000D01*
X145956000Y-105516000D01*
X145917000Y-105509000D01*
X145878000Y-105504000D01*
X145839000Y-105501000D01*
X145800000Y-105500000D01*
X145761000Y-105501000D01*
X145722000Y-105504000D01*
X145683000Y-105509000D01*
X145644000Y-105516000D01*
X145606000Y-105526000D01*
X145568000Y-105537000D01*
X145531000Y-105550000D01*
X145495000Y-105565000D01*
X145460000Y-105582000D01*
X145425000Y-105600000D01*
X145392000Y-105621000D01*
X145359000Y-105643000D01*
X145328000Y-105667000D01*
X145298000Y-105693000D01*
X145270000Y-105720000D01*
X145243000Y-105748000D01*
X145217000Y-105778000D01*
X145193000Y-105809000D01*
X145171000Y-105842000D01*
X145150000Y-105875000D01*
X145132000Y-105910000D01*
X145115000Y-105945000D01*
X145100000Y-105981000D01*
X145087000Y-106018000D01*
X145076000Y-106056000D01*
X145066000Y-106094000D01*
X145059000Y-106133000D01*
X145054000Y-106172000D01*
X145051000Y-106211000D01*
X145050000Y-106250000D01*
X145050000Y-107350000D01*
X145300000Y-107350000D01*
X145300000Y-106250000D01*
X145301000Y-106224000D01*
X145303000Y-106198000D01*
X145306000Y-106172000D01*
X145311000Y-106146000D01*
X145317000Y-106121000D01*
X145324000Y-106095000D01*
X145333000Y-106071000D01*
X145343000Y-106047000D01*
X145354000Y-106023000D01*
X145367000Y-106000000D01*
X145381000Y-105978000D01*
X145395000Y-105956000D01*
X145411000Y-105935000D01*
X145428000Y-105915000D01*
X145446000Y-105896000D01*
X145465000Y-105878000D01*
X145485000Y-105861000D01*
X145506000Y-105845000D01*
X145528000Y-105831000D01*
X145550000Y-105817000D01*
X145573000Y-105804000D01*
X145597000Y-105793000D01*
X145621000Y-105783000D01*
X145645000Y-105774000D01*
X145671000Y-105767000D01*
X145696000Y-105761000D01*
X145722000Y-105756000D01*
X145748000Y-105753000D01*
X145774000Y-105751000D01*
X145800000Y-105750000D01*
X145826000Y-105751000D01*
X145852000Y-105753000D01*
X145878000Y-105756000D01*
X145904000Y-105761000D01*
X145929000Y-105767000D01*
X145955000Y-105774000D01*
X145979000Y-105783000D01*
X146003000Y-105793000D01*
X146027000Y-105804000D01*
X146050000Y-105817000D01*
X146072000Y-105831000D01*
X146094000Y-105845000D01*
X146115000Y-105861000D01*
X146135000Y-105878000D01*
X146154000Y-105896000D01*
X146172000Y-105915000D01*
X146189000Y-105935000D01*
X146205000Y-105956000D01*
X146219000Y-105978000D01*
X146233000Y-106000000D01*
X146246000Y-106023000D01*
X146257000Y-106047000D01*
X146267000Y-106071000D01*
X146276000Y-106095000D01*
X146283000Y-106121000D01*
X146289000Y-106146000D01*
X146294000Y-106172000D01*
X146297000Y-106198000D01*
X146299000Y-106224000D01*
X146300000Y-106250000D01*
X146300000Y-107350000D01*
G37*
X146300000Y-107350000D02*
X146550000Y-107350000D01*
X146550000Y-106250000D01*
X146549000Y-106211000D01*
X146546000Y-106172000D01*
X146541000Y-106133000D01*
X146534000Y-106094000D01*
X146524000Y-106056000D01*
X146513000Y-106018000D01*
X146500000Y-105981000D01*
X146485000Y-105945000D01*
X146468000Y-105910000D01*
X146450000Y-105875000D01*
X146429000Y-105842000D01*
X146407000Y-105809000D01*
X146383000Y-105778000D01*
X146357000Y-105748000D01*
X146330000Y-105720000D01*
X146302000Y-105693000D01*
X146272000Y-105667000D01*
X146241000Y-105643000D01*
X146208000Y-105621000D01*
X146175000Y-105600000D01*
X146140000Y-105582000D01*
X146105000Y-105565000D01*
X146069000Y-105550000D01*
X146032000Y-105537000D01*
X145994000Y-105526000D01*
X145956000Y-105516000D01*
X145917000Y-105509000D01*
X145878000Y-105504000D01*
X145839000Y-105501000D01*
X145800000Y-105500000D01*
X145761000Y-105501000D01*
X145722000Y-105504000D01*
X145683000Y-105509000D01*
X145644000Y-105516000D01*
X145606000Y-105526000D01*
X145568000Y-105537000D01*
X145531000Y-105550000D01*
X145495000Y-105565000D01*
X145460000Y-105582000D01*
X145425000Y-105600000D01*
X145392000Y-105621000D01*
X145359000Y-105643000D01*
X145328000Y-105667000D01*
X145298000Y-105693000D01*
X145270000Y-105720000D01*
X145243000Y-105748000D01*
X145217000Y-105778000D01*
X145193000Y-105809000D01*
X145171000Y-105842000D01*
X145150000Y-105875000D01*
X145132000Y-105910000D01*
X145115000Y-105945000D01*
X145100000Y-105981000D01*
X145087000Y-106018000D01*
X145076000Y-106056000D01*
X145066000Y-106094000D01*
X145059000Y-106133000D01*
X145054000Y-106172000D01*
X145051000Y-106211000D01*
X145050000Y-106250000D01*
X145050000Y-107350000D01*
X145300000Y-107350000D01*
X145300000Y-106250000D01*
X145301000Y-106224000D01*
X145303000Y-106198000D01*
X145306000Y-106172000D01*
X145311000Y-106146000D01*
X145317000Y-106121000D01*
X145324000Y-106095000D01*
X145333000Y-106071000D01*
X145343000Y-106047000D01*
X145354000Y-106023000D01*
X145367000Y-106000000D01*
X145381000Y-105978000D01*
X145395000Y-105956000D01*
X145411000Y-105935000D01*
X145428000Y-105915000D01*
X145446000Y-105896000D01*
X145465000Y-105878000D01*
X145485000Y-105861000D01*
X145506000Y-105845000D01*
X145528000Y-105831000D01*
X145550000Y-105817000D01*
X145573000Y-105804000D01*
X145597000Y-105793000D01*
X145621000Y-105783000D01*
X145645000Y-105774000D01*
X145671000Y-105767000D01*
X145696000Y-105761000D01*
X145722000Y-105756000D01*
X145748000Y-105753000D01*
X145774000Y-105751000D01*
X145800000Y-105750000D01*
X145826000Y-105751000D01*
X145852000Y-105753000D01*
X145878000Y-105756000D01*
X145904000Y-105761000D01*
X145929000Y-105767000D01*
X145955000Y-105774000D01*
X145979000Y-105783000D01*
X146003000Y-105793000D01*
X146027000Y-105804000D01*
X146050000Y-105817000D01*
X146072000Y-105831000D01*
X146094000Y-105845000D01*
X146115000Y-105861000D01*
X146135000Y-105878000D01*
X146154000Y-105896000D01*
X146172000Y-105915000D01*
X146189000Y-105935000D01*
X146205000Y-105956000D01*
X146219000Y-105978000D01*
X146233000Y-106000000D01*
X146246000Y-106023000D01*
X146257000Y-106047000D01*
X146267000Y-106071000D01*
X146276000Y-106095000D01*
X146283000Y-106121000D01*
X146289000Y-106146000D01*
X146294000Y-106172000D01*
X146297000Y-106198000D01*
X146299000Y-106224000D01*
X146300000Y-106250000D01*
X146300000Y-107350000D01*
G36*
X141000000Y-103950000D02*
G01*
X141000000Y-103700000D01*
X139700000Y-103700000D01*
X139661000Y-103701000D01*
X139622000Y-103704000D01*
X139583000Y-103709000D01*
X139544000Y-103716000D01*
X139506000Y-103726000D01*
X139468000Y-103737000D01*
X139431000Y-103750000D01*
X139395000Y-103765000D01*
X139360000Y-103782000D01*
X139325000Y-103800000D01*
X139292000Y-103821000D01*
X139259000Y-103843000D01*
X139228000Y-103867000D01*
X139198000Y-103893000D01*
X139170000Y-103920000D01*
X139143000Y-103948000D01*
X139117000Y-103978000D01*
X139093000Y-104009000D01*
X139071000Y-104042000D01*
X139050000Y-104075000D01*
X139032000Y-104110000D01*
X139015000Y-104145000D01*
X139000000Y-104181000D01*
X138987000Y-104218000D01*
X138976000Y-104256000D01*
X138966000Y-104294000D01*
X138959000Y-104333000D01*
X138954000Y-104372000D01*
X138951000Y-104411000D01*
X138950000Y-104450000D01*
X138951000Y-104489000D01*
X138954000Y-104528000D01*
X138959000Y-104567000D01*
X138966000Y-104606000D01*
X138976000Y-104644000D01*
X138987000Y-104682000D01*
X139000000Y-104719000D01*
X139015000Y-104755000D01*
X139032000Y-104790000D01*
X139050000Y-104825000D01*
X139071000Y-104858000D01*
X139093000Y-104891000D01*
X139117000Y-104922000D01*
X139143000Y-104952000D01*
X139170000Y-104980000D01*
X139198000Y-105007000D01*
X139228000Y-105033000D01*
X139259000Y-105057000D01*
X139292000Y-105079000D01*
X139325000Y-105100000D01*
X139360000Y-105118000D01*
X139395000Y-105135000D01*
X139431000Y-105150000D01*
X139468000Y-105163000D01*
X139506000Y-105174000D01*
X139544000Y-105184000D01*
X139583000Y-105191000D01*
X139622000Y-105196000D01*
X139661000Y-105199000D01*
X139700000Y-105200000D01*
X141000000Y-105200000D01*
X141000000Y-104950000D01*
X139700000Y-104950000D01*
X139674000Y-104949000D01*
X139648000Y-104947000D01*
X139622000Y-104944000D01*
X139596000Y-104939000D01*
X139571000Y-104933000D01*
X139545000Y-104926000D01*
X139521000Y-104917000D01*
X139497000Y-104907000D01*
X139473000Y-104896000D01*
X139450000Y-104883000D01*
X139428000Y-104869000D01*
X139406000Y-104855000D01*
X139385000Y-104839000D01*
X139365000Y-104822000D01*
X139346000Y-104804000D01*
X139328000Y-104785000D01*
X139311000Y-104765000D01*
X139295000Y-104744000D01*
X139281000Y-104722000D01*
X139267000Y-104700000D01*
X139254000Y-104677000D01*
X139243000Y-104653000D01*
X139233000Y-104629000D01*
X139224000Y-104605000D01*
X139217000Y-104579000D01*
X139211000Y-104554000D01*
X139206000Y-104528000D01*
X139203000Y-104502000D01*
X139201000Y-104476000D01*
X139200000Y-104450000D01*
X139201000Y-104424000D01*
X139203000Y-104398000D01*
X139206000Y-104372000D01*
X139211000Y-104346000D01*
X139217000Y-104321000D01*
X139224000Y-104295000D01*
X139233000Y-104271000D01*
X139243000Y-104247000D01*
X139254000Y-104223000D01*
X139267000Y-104200000D01*
X139281000Y-104178000D01*
X139295000Y-104156000D01*
X139311000Y-104135000D01*
X139328000Y-104115000D01*
X139346000Y-104096000D01*
X139365000Y-104078000D01*
X139385000Y-104061000D01*
X139406000Y-104045000D01*
X139428000Y-104031000D01*
X139450000Y-104017000D01*
X139473000Y-104004000D01*
X139497000Y-103993000D01*
X139521000Y-103983000D01*
X139545000Y-103974000D01*
X139571000Y-103967000D01*
X139596000Y-103961000D01*
X139622000Y-103956000D01*
X139648000Y-103953000D01*
X139674000Y-103951000D01*
X139700000Y-103950000D01*
X141000000Y-103950000D01*
G37*
X141000000Y-103950000D02*
X141000000Y-103700000D01*
X139700000Y-103700000D01*
X139661000Y-103701000D01*
X139622000Y-103704000D01*
X139583000Y-103709000D01*
X139544000Y-103716000D01*
X139506000Y-103726000D01*
X139468000Y-103737000D01*
X139431000Y-103750000D01*
X139395000Y-103765000D01*
X139360000Y-103782000D01*
X139325000Y-103800000D01*
X139292000Y-103821000D01*
X139259000Y-103843000D01*
X139228000Y-103867000D01*
X139198000Y-103893000D01*
X139170000Y-103920000D01*
X139143000Y-103948000D01*
X139117000Y-103978000D01*
X139093000Y-104009000D01*
X139071000Y-104042000D01*
X139050000Y-104075000D01*
X139032000Y-104110000D01*
X139015000Y-104145000D01*
X139000000Y-104181000D01*
X138987000Y-104218000D01*
X138976000Y-104256000D01*
X138966000Y-104294000D01*
X138959000Y-104333000D01*
X138954000Y-104372000D01*
X138951000Y-104411000D01*
X138950000Y-104450000D01*
X138951000Y-104489000D01*
X138954000Y-104528000D01*
X138959000Y-104567000D01*
X138966000Y-104606000D01*
X138976000Y-104644000D01*
X138987000Y-104682000D01*
X139000000Y-104719000D01*
X139015000Y-104755000D01*
X139032000Y-104790000D01*
X139050000Y-104825000D01*
X139071000Y-104858000D01*
X139093000Y-104891000D01*
X139117000Y-104922000D01*
X139143000Y-104952000D01*
X139170000Y-104980000D01*
X139198000Y-105007000D01*
X139228000Y-105033000D01*
X139259000Y-105057000D01*
X139292000Y-105079000D01*
X139325000Y-105100000D01*
X139360000Y-105118000D01*
X139395000Y-105135000D01*
X139431000Y-105150000D01*
X139468000Y-105163000D01*
X139506000Y-105174000D01*
X139544000Y-105184000D01*
X139583000Y-105191000D01*
X139622000Y-105196000D01*
X139661000Y-105199000D01*
X139700000Y-105200000D01*
X141000000Y-105200000D01*
X141000000Y-104950000D01*
X139700000Y-104950000D01*
X139674000Y-104949000D01*
X139648000Y-104947000D01*
X139622000Y-104944000D01*
X139596000Y-104939000D01*
X139571000Y-104933000D01*
X139545000Y-104926000D01*
X139521000Y-104917000D01*
X139497000Y-104907000D01*
X139473000Y-104896000D01*
X139450000Y-104883000D01*
X139428000Y-104869000D01*
X139406000Y-104855000D01*
X139385000Y-104839000D01*
X139365000Y-104822000D01*
X139346000Y-104804000D01*
X139328000Y-104785000D01*
X139311000Y-104765000D01*
X139295000Y-104744000D01*
X139281000Y-104722000D01*
X139267000Y-104700000D01*
X139254000Y-104677000D01*
X139243000Y-104653000D01*
X139233000Y-104629000D01*
X139224000Y-104605000D01*
X139217000Y-104579000D01*
X139211000Y-104554000D01*
X139206000Y-104528000D01*
X139203000Y-104502000D01*
X139201000Y-104476000D01*
X139200000Y-104450000D01*
X139201000Y-104424000D01*
X139203000Y-104398000D01*
X139206000Y-104372000D01*
X139211000Y-104346000D01*
X139217000Y-104321000D01*
X139224000Y-104295000D01*
X139233000Y-104271000D01*
X139243000Y-104247000D01*
X139254000Y-104223000D01*
X139267000Y-104200000D01*
X139281000Y-104178000D01*
X139295000Y-104156000D01*
X139311000Y-104135000D01*
X139328000Y-104115000D01*
X139346000Y-104096000D01*
X139365000Y-104078000D01*
X139385000Y-104061000D01*
X139406000Y-104045000D01*
X139428000Y-104031000D01*
X139450000Y-104017000D01*
X139473000Y-104004000D01*
X139497000Y-103993000D01*
X139521000Y-103983000D01*
X139545000Y-103974000D01*
X139571000Y-103967000D01*
X139596000Y-103961000D01*
X139622000Y-103956000D01*
X139648000Y-103953000D01*
X139674000Y-103951000D01*
X139700000Y-103950000D01*
X141000000Y-103950000D01*
G36*
X141000000Y-104950000D02*
G01*
X141000000Y-105200000D01*
X142300000Y-105200000D01*
X142339000Y-105199000D01*
X142378000Y-105196000D01*
X142417000Y-105191000D01*
X142456000Y-105184000D01*
X142494000Y-105174000D01*
X142532000Y-105163000D01*
X142569000Y-105150000D01*
X142605000Y-105135000D01*
X142640000Y-105118000D01*
X142675000Y-105100000D01*
X142708000Y-105079000D01*
X142741000Y-105057000D01*
X142772000Y-105033000D01*
X142802000Y-105007000D01*
X142830000Y-104980000D01*
X142857000Y-104952000D01*
X142883000Y-104922000D01*
X142907000Y-104891000D01*
X142929000Y-104858000D01*
X142950000Y-104825000D01*
X142968000Y-104790000D01*
X142985000Y-104755000D01*
X143000000Y-104719000D01*
X143013000Y-104682000D01*
X143024000Y-104644000D01*
X143034000Y-104606000D01*
X143041000Y-104567000D01*
X143046000Y-104528000D01*
X143049000Y-104489000D01*
X143050000Y-104450000D01*
X143049000Y-104411000D01*
X143046000Y-104372000D01*
X143041000Y-104333000D01*
X143034000Y-104294000D01*
X143024000Y-104256000D01*
X143013000Y-104218000D01*
X143000000Y-104181000D01*
X142985000Y-104145000D01*
X142968000Y-104110000D01*
X142950000Y-104075000D01*
X142929000Y-104042000D01*
X142907000Y-104009000D01*
X142883000Y-103978000D01*
X142857000Y-103948000D01*
X142830000Y-103920000D01*
X142802000Y-103893000D01*
X142772000Y-103867000D01*
X142741000Y-103843000D01*
X142708000Y-103821000D01*
X142675000Y-103800000D01*
X142640000Y-103782000D01*
X142605000Y-103765000D01*
X142569000Y-103750000D01*
X142532000Y-103737000D01*
X142494000Y-103726000D01*
X142456000Y-103716000D01*
X142417000Y-103709000D01*
X142378000Y-103704000D01*
X142339000Y-103701000D01*
X142300000Y-103700000D01*
X141000000Y-103700000D01*
X141000000Y-103950000D01*
X142300000Y-103950000D01*
X142326000Y-103951000D01*
X142352000Y-103953000D01*
X142378000Y-103956000D01*
X142404000Y-103961000D01*
X142429000Y-103967000D01*
X142455000Y-103974000D01*
X142479000Y-103983000D01*
X142503000Y-103993000D01*
X142527000Y-104004000D01*
X142550000Y-104017000D01*
X142572000Y-104031000D01*
X142594000Y-104045000D01*
X142615000Y-104061000D01*
X142635000Y-104078000D01*
X142654000Y-104096000D01*
X142672000Y-104115000D01*
X142689000Y-104135000D01*
X142705000Y-104156000D01*
X142719000Y-104178000D01*
X142733000Y-104200000D01*
X142746000Y-104223000D01*
X142757000Y-104247000D01*
X142767000Y-104271000D01*
X142776000Y-104295000D01*
X142783000Y-104321000D01*
X142789000Y-104346000D01*
X142794000Y-104372000D01*
X142797000Y-104398000D01*
X142799000Y-104424000D01*
X142800000Y-104450000D01*
X142799000Y-104476000D01*
X142797000Y-104502000D01*
X142794000Y-104528000D01*
X142789000Y-104554000D01*
X142783000Y-104579000D01*
X142776000Y-104605000D01*
X142767000Y-104629000D01*
X142757000Y-104653000D01*
X142746000Y-104677000D01*
X142733000Y-104700000D01*
X142719000Y-104722000D01*
X142705000Y-104744000D01*
X142689000Y-104765000D01*
X142672000Y-104785000D01*
X142654000Y-104804000D01*
X142635000Y-104822000D01*
X142615000Y-104839000D01*
X142594000Y-104855000D01*
X142572000Y-104869000D01*
X142550000Y-104883000D01*
X142527000Y-104896000D01*
X142503000Y-104907000D01*
X142479000Y-104917000D01*
X142455000Y-104926000D01*
X142429000Y-104933000D01*
X142404000Y-104939000D01*
X142378000Y-104944000D01*
X142352000Y-104947000D01*
X142326000Y-104949000D01*
X142300000Y-104950000D01*
X141000000Y-104950000D01*
G37*
X141000000Y-104950000D02*
X141000000Y-105200000D01*
X142300000Y-105200000D01*
X142339000Y-105199000D01*
X142378000Y-105196000D01*
X142417000Y-105191000D01*
X142456000Y-105184000D01*
X142494000Y-105174000D01*
X142532000Y-105163000D01*
X142569000Y-105150000D01*
X142605000Y-105135000D01*
X142640000Y-105118000D01*
X142675000Y-105100000D01*
X142708000Y-105079000D01*
X142741000Y-105057000D01*
X142772000Y-105033000D01*
X142802000Y-105007000D01*
X142830000Y-104980000D01*
X142857000Y-104952000D01*
X142883000Y-104922000D01*
X142907000Y-104891000D01*
X142929000Y-104858000D01*
X142950000Y-104825000D01*
X142968000Y-104790000D01*
X142985000Y-104755000D01*
X143000000Y-104719000D01*
X143013000Y-104682000D01*
X143024000Y-104644000D01*
X143034000Y-104606000D01*
X143041000Y-104567000D01*
X143046000Y-104528000D01*
X143049000Y-104489000D01*
X143050000Y-104450000D01*
X143049000Y-104411000D01*
X143046000Y-104372000D01*
X143041000Y-104333000D01*
X143034000Y-104294000D01*
X143024000Y-104256000D01*
X143013000Y-104218000D01*
X143000000Y-104181000D01*
X142985000Y-104145000D01*
X142968000Y-104110000D01*
X142950000Y-104075000D01*
X142929000Y-104042000D01*
X142907000Y-104009000D01*
X142883000Y-103978000D01*
X142857000Y-103948000D01*
X142830000Y-103920000D01*
X142802000Y-103893000D01*
X142772000Y-103867000D01*
X142741000Y-103843000D01*
X142708000Y-103821000D01*
X142675000Y-103800000D01*
X142640000Y-103782000D01*
X142605000Y-103765000D01*
X142569000Y-103750000D01*
X142532000Y-103737000D01*
X142494000Y-103726000D01*
X142456000Y-103716000D01*
X142417000Y-103709000D01*
X142378000Y-103704000D01*
X142339000Y-103701000D01*
X142300000Y-103700000D01*
X141000000Y-103700000D01*
X141000000Y-103950000D01*
X142300000Y-103950000D01*
X142326000Y-103951000D01*
X142352000Y-103953000D01*
X142378000Y-103956000D01*
X142404000Y-103961000D01*
X142429000Y-103967000D01*
X142455000Y-103974000D01*
X142479000Y-103983000D01*
X142503000Y-103993000D01*
X142527000Y-104004000D01*
X142550000Y-104017000D01*
X142572000Y-104031000D01*
X142594000Y-104045000D01*
X142615000Y-104061000D01*
X142635000Y-104078000D01*
X142654000Y-104096000D01*
X142672000Y-104115000D01*
X142689000Y-104135000D01*
X142705000Y-104156000D01*
X142719000Y-104178000D01*
X142733000Y-104200000D01*
X142746000Y-104223000D01*
X142757000Y-104247000D01*
X142767000Y-104271000D01*
X142776000Y-104295000D01*
X142783000Y-104321000D01*
X142789000Y-104346000D01*
X142794000Y-104372000D01*
X142797000Y-104398000D01*
X142799000Y-104424000D01*
X142800000Y-104450000D01*
X142799000Y-104476000D01*
X142797000Y-104502000D01*
X142794000Y-104528000D01*
X142789000Y-104554000D01*
X142783000Y-104579000D01*
X142776000Y-104605000D01*
X142767000Y-104629000D01*
X142757000Y-104653000D01*
X142746000Y-104677000D01*
X142733000Y-104700000D01*
X142719000Y-104722000D01*
X142705000Y-104744000D01*
X142689000Y-104765000D01*
X142672000Y-104785000D01*
X142654000Y-104804000D01*
X142635000Y-104822000D01*
X142615000Y-104839000D01*
X142594000Y-104855000D01*
X142572000Y-104869000D01*
X142550000Y-104883000D01*
X142527000Y-104896000D01*
X142503000Y-104907000D01*
X142479000Y-104917000D01*
X142455000Y-104926000D01*
X142429000Y-104933000D01*
X142404000Y-104939000D01*
X142378000Y-104944000D01*
X142352000Y-104947000D01*
X142326000Y-104949000D01*
X142300000Y-104950000D01*
X141000000Y-104950000D01*
M02*
