M48
; DRILL file {KiCad (5.1.12)-1} date 12/26/21 01:52:12
; FORMAT={-:-/ absolute / metric / decimal}
; #@! TF.CreationDate,2021-12-26T01:52:12+01:00
; #@! TF.GenerationSoftware,Kicad,Pcbnew,(5.1.12)-1
; #@! TF.FileFunction,Plated,1,2,PTH
FMAT,2
METRIC
T1C0.750
T2C0.800
T3C0.900
T4C1.000
T5C1.040
T6C1.118
%
G90
G05
T1
X162.0Y-93.46
X162.0Y-94.73
X162.0Y-96.0
T2
X132.0Y-103.84
X132.0Y-114.0
X154.0Y-102.5
X154.0Y-105.0
X154.0Y-112.0
X154.0Y-114.5
X162.0Y-102.84
X162.0Y-113.0
T3
X125.0Y-108.46
X125.0Y-111.0
X151.0Y-92.0
X151.0Y-97.0
X156.0Y-94.5
T4
X123.0Y-40.0
X123.0Y-42.54
X123.0Y-45.08
X123.0Y-47.62
X123.0Y-50.16
X123.0Y-52.7
X123.0Y-55.24
X123.0Y-57.78
X123.0Y-60.32
X123.0Y-62.86
X123.0Y-65.4
X123.0Y-67.94
X123.0Y-70.48
X123.0Y-73.02
X123.0Y-75.56
X123.0Y-78.1
T5
X130.3Y-35.04
X130.3Y-37.58
X130.3Y-40.12
X130.3Y-42.66
X130.3Y-45.2
X130.3Y-47.74
X130.3Y-50.28
X130.3Y-52.82
X130.3Y-55.36
X130.3Y-57.9
X130.3Y-60.44
X130.3Y-62.98
X130.3Y-65.52
X130.3Y-68.06
X130.3Y-70.6
X130.3Y-73.14
X130.3Y-75.68
X130.3Y-78.22
X130.3Y-80.76
X155.7Y-35.04
X155.7Y-37.58
X155.7Y-40.12
X155.7Y-42.66
X155.7Y-45.2
X155.7Y-47.74
X155.7Y-50.28
X155.7Y-52.82
X155.7Y-55.36
X155.7Y-57.9
X155.7Y-60.44
X155.7Y-62.98
X155.7Y-65.52
X155.7Y-68.06
X155.7Y-70.6
X155.7Y-73.14
X155.7Y-75.68
X155.7Y-78.22
X155.7Y-80.76
T6
X142.35Y-92.46
X142.35Y-95.0
X142.35Y-97.54
T0
M30
