G04 #@! TF.GenerationSoftware,KiCad,Pcbnew,(5.1.12)-1*
G04 #@! TF.CreationDate,2021-12-26T01:52:18+01:00*
G04 #@! TF.ProjectId,esp32,65737033-322e-46b6-9963-61645f706362,rev?*
G04 #@! TF.SameCoordinates,Original*
G04 #@! TF.FileFunction,Legend,Top*
G04 #@! TF.FilePolarity,Positive*
%FSLAX46Y46*%
G04 Gerber Fmt 4.6, Leading zero omitted, Abs format (unit mm)*
G04 Created by KiCad (PCBNEW (5.1.12)-1) date 2021-12-26 01:52:18*
%MOMM*%
%LPD*%
G01*
G04 APERTURE LIST*
%ADD10C,0.120000*%
%ADD11C,0.250000*%
%ADD12C,0.127000*%
%ADD13C,0.050800*%
%ADD14C,0.010000*%
%ADD15C,0.200000*%
%ADD16C,0.150000*%
G04 APERTURE END LIST*
D10*
X163000000Y-84000000D02*
G75*
G02*
X159000000Y-84000000I-2000000J0D01*
G01*
X159000000Y-38000000D02*
G75*
G02*
X163000000Y-38000000I2000000J0D01*
G01*
X163000000Y-38000000D02*
X163000000Y-84000000D01*
X159000000Y-38000000D02*
X159000000Y-84000000D01*
D11*
X160452380Y-83316443D02*
X160452380Y-82173586D01*
X161452380Y-82870014D02*
X160452380Y-82745014D01*
X161404761Y-80864062D02*
X161452380Y-81060491D01*
X161452380Y-81441443D01*
X161404761Y-81625967D01*
X161309523Y-81709300D01*
X160928571Y-81661681D01*
X160833333Y-81554538D01*
X160785714Y-81358110D01*
X160785714Y-80977157D01*
X160833333Y-80792633D01*
X160928571Y-80709300D01*
X161023809Y-80721205D01*
X161119047Y-81685491D01*
X161452380Y-79917633D02*
X160785714Y-79834300D01*
X160880952Y-79846205D02*
X160833333Y-79745014D01*
X160785714Y-79548586D01*
X160785714Y-79262872D01*
X160833333Y-79078348D01*
X160928571Y-78995014D01*
X161452380Y-79060491D01*
X160928571Y-78995014D02*
X160833333Y-78887872D01*
X160785714Y-78691443D01*
X160785714Y-78405729D01*
X160833333Y-78221205D01*
X160928571Y-78137872D01*
X161452380Y-78203348D01*
X160785714Y-77167633D02*
X161785714Y-77292633D01*
X160833333Y-77173586D02*
X160785714Y-76977157D01*
X160785714Y-76596205D01*
X160833333Y-76411681D01*
X160880952Y-76322395D01*
X160976190Y-76239062D01*
X161261904Y-76274776D01*
X161357142Y-76381919D01*
X161404761Y-76483110D01*
X161452380Y-76679538D01*
X161452380Y-77060491D01*
X161404761Y-77245014D01*
X161404761Y-74673586D02*
X161452380Y-74870014D01*
X161452380Y-75250967D01*
X161404761Y-75435491D01*
X161309523Y-75518824D01*
X160928571Y-75471205D01*
X160833333Y-75364062D01*
X160785714Y-75167633D01*
X160785714Y-74786681D01*
X160833333Y-74602157D01*
X160928571Y-74518824D01*
X161023809Y-74530729D01*
X161119047Y-75495014D01*
X161452380Y-73727157D02*
X160785714Y-73643824D01*
X160976190Y-73667633D02*
X160880952Y-73560491D01*
X160833333Y-73459300D01*
X160785714Y-73262872D01*
X160785714Y-73072395D01*
X161452380Y-71631919D02*
X160928571Y-71566443D01*
X160833333Y-71649776D01*
X160785714Y-71834300D01*
X160785714Y-72215252D01*
X160833333Y-72411681D01*
X161404761Y-71625967D02*
X161452380Y-71822395D01*
X161452380Y-72298586D01*
X161404761Y-72483110D01*
X161309523Y-72566443D01*
X161214285Y-72554538D01*
X161119047Y-72447395D01*
X161071428Y-72250967D01*
X161071428Y-71774776D01*
X161023809Y-71578348D01*
X160785714Y-70881919D02*
X160785714Y-70120014D01*
X160452380Y-70554538D02*
X161309523Y-70661681D01*
X161404761Y-70578348D01*
X161452380Y-70393824D01*
X161452380Y-70203348D01*
X160785714Y-68596205D02*
X161452380Y-68679538D01*
X160785714Y-69453348D02*
X161309523Y-69518824D01*
X161404761Y-69435491D01*
X161452380Y-69250967D01*
X161452380Y-68965252D01*
X161404761Y-68768824D01*
X161357142Y-68667633D01*
X161452380Y-67727157D02*
X160785714Y-67643824D01*
X160976190Y-67667633D02*
X160880952Y-67560491D01*
X160833333Y-67459300D01*
X160785714Y-67262872D01*
X160785714Y-67072395D01*
X161404761Y-65721205D02*
X161452380Y-65917633D01*
X161452380Y-66298586D01*
X161404761Y-66483110D01*
X161309523Y-66566443D01*
X160928571Y-66518824D01*
X160833333Y-66411681D01*
X160785714Y-66215252D01*
X160785714Y-65834300D01*
X160833333Y-65649776D01*
X160928571Y-65566443D01*
X161023809Y-65578348D01*
X161119047Y-66542633D01*
X161404761Y-63340252D02*
X161452380Y-63060491D01*
X161452380Y-62584300D01*
X161404761Y-62387872D01*
X161357142Y-62286681D01*
X161261904Y-62179538D01*
X161166666Y-62167633D01*
X161071428Y-62250967D01*
X161023809Y-62340252D01*
X160976190Y-62524776D01*
X160928571Y-62899776D01*
X160880952Y-63084300D01*
X160833333Y-63173586D01*
X160738095Y-63256919D01*
X160642857Y-63245014D01*
X160547619Y-63137872D01*
X160500000Y-63036681D01*
X160452380Y-62840252D01*
X160452380Y-62364062D01*
X160500000Y-62084300D01*
X161404761Y-60578348D02*
X161452380Y-60774776D01*
X161452380Y-61155729D01*
X161404761Y-61340252D01*
X161309523Y-61423586D01*
X160928571Y-61375967D01*
X160833333Y-61268824D01*
X160785714Y-61072395D01*
X160785714Y-60691443D01*
X160833333Y-60506919D01*
X160928571Y-60423586D01*
X161023809Y-60435491D01*
X161119047Y-61399776D01*
X160785714Y-59548586D02*
X161452380Y-59631919D01*
X160880952Y-59560491D02*
X160833333Y-59459300D01*
X160785714Y-59262872D01*
X160785714Y-58977157D01*
X160833333Y-58792633D01*
X160928571Y-58709300D01*
X161452380Y-58774776D01*
X161404761Y-57911681D02*
X161452380Y-57727157D01*
X161452380Y-57346205D01*
X161404761Y-57149776D01*
X161309523Y-57042633D01*
X161261904Y-57036681D01*
X161166666Y-57120014D01*
X161119047Y-57304538D01*
X161119047Y-57590252D01*
X161071428Y-57774776D01*
X160976190Y-57858110D01*
X160928571Y-57852157D01*
X160833333Y-57745014D01*
X160785714Y-57548586D01*
X160785714Y-57262872D01*
X160833333Y-57078348D01*
X161452380Y-55917633D02*
X161404761Y-56102157D01*
X161357142Y-56191443D01*
X161261904Y-56274776D01*
X160976190Y-56239062D01*
X160880952Y-56131919D01*
X160833333Y-56030729D01*
X160785714Y-55834300D01*
X160785714Y-55548586D01*
X160833333Y-55364062D01*
X160880952Y-55274776D01*
X160976190Y-55191443D01*
X161261904Y-55227157D01*
X161357142Y-55334300D01*
X161404761Y-55435491D01*
X161452380Y-55631919D01*
X161452380Y-55917633D01*
X161452380Y-54393824D02*
X160785714Y-54310491D01*
X160976190Y-54334300D02*
X160880952Y-54227157D01*
X160833333Y-54125967D01*
X160785714Y-53929538D01*
X160785714Y-53739062D01*
X161071428Y-51584300D02*
X161071428Y-50060491D01*
X160928571Y-47566443D02*
X160928571Y-46899776D01*
X161452380Y-46679538D02*
X161452380Y-47631919D01*
X160452380Y-47506919D01*
X160452380Y-46554538D01*
X161404761Y-45911681D02*
X161452380Y-45631919D01*
X161452380Y-45155729D01*
X161404761Y-44959300D01*
X161357142Y-44858110D01*
X161261904Y-44750967D01*
X161166666Y-44739062D01*
X161071428Y-44822395D01*
X161023809Y-44911681D01*
X160976190Y-45096205D01*
X160928571Y-45471205D01*
X160880952Y-45655729D01*
X160833333Y-45745014D01*
X160738095Y-45828348D01*
X160642857Y-45816443D01*
X160547619Y-45709300D01*
X160500000Y-45608110D01*
X160452380Y-45411681D01*
X160452380Y-44935491D01*
X160500000Y-44655729D01*
X161452380Y-43917633D02*
X160452380Y-43792633D01*
X160452380Y-43030729D01*
X160500000Y-42846205D01*
X160547619Y-42756919D01*
X160642857Y-42673586D01*
X160785714Y-42691443D01*
X160880952Y-42798586D01*
X160928571Y-42899776D01*
X160976190Y-43096205D01*
X160976190Y-43858110D01*
X160452380Y-41983110D02*
X160452380Y-40745014D01*
X160833333Y-41459300D01*
X160833333Y-41173586D01*
X160880952Y-40989062D01*
X160928571Y-40899776D01*
X161023809Y-40816443D01*
X161261904Y-40846205D01*
X161357142Y-40953348D01*
X161404761Y-41054538D01*
X161452380Y-41250967D01*
X161452380Y-41822395D01*
X161404761Y-42006919D01*
X161357142Y-42096205D01*
X160547619Y-39995014D02*
X160500000Y-39893824D01*
X160452380Y-39697395D01*
X160452380Y-39221205D01*
X160500000Y-39036681D01*
X160547619Y-38947395D01*
X160642857Y-38864062D01*
X160738095Y-38875967D01*
X160880952Y-38989062D01*
X161452380Y-40203348D01*
X161452380Y-38965252D01*
D10*
X156591846Y-95564608D02*
G75*
G02*
X153500000Y-97770000I-3091846J1064608D01*
G01*
X152016032Y-91586171D02*
G75*
G02*
X156592000Y-93436000I1483968J-2913829D01*
G01*
X150586613Y-95985202D02*
G75*
G02*
X150586000Y-93016000I2913387J1485202D01*
G01*
X153556863Y-97770075D02*
G75*
G02*
X152015000Y-97414000I-56863J3270075D01*
G01*
X156154000Y-110064759D02*
X155524000Y-110064759D01*
X155839000Y-109749759D02*
X155839000Y-110379759D01*
X154402000Y-116491000D02*
X153598000Y-116491000D01*
X154633000Y-116451000D02*
X153367000Y-116451000D01*
X154802000Y-116411000D02*
X153198000Y-116411000D01*
X154940000Y-116371000D02*
X153060000Y-116371000D01*
X155059000Y-116331000D02*
X152941000Y-116331000D01*
X155165000Y-116291000D02*
X152835000Y-116291000D01*
X155262000Y-116251000D02*
X152738000Y-116251000D01*
X155350000Y-116211000D02*
X152650000Y-116211000D01*
X155432000Y-116171000D02*
X152568000Y-116171000D01*
X155509000Y-116131000D02*
X152491000Y-116131000D01*
X155581000Y-116091000D02*
X152419000Y-116091000D01*
X155650000Y-116051000D02*
X152350000Y-116051000D01*
X155714000Y-116011000D02*
X152286000Y-116011000D01*
X155776000Y-115971000D02*
X152224000Y-115971000D01*
X155834000Y-115931000D02*
X152166000Y-115931000D01*
X155890000Y-115891000D02*
X152110000Y-115891000D01*
X155944000Y-115851000D02*
X152056000Y-115851000D01*
X155995000Y-115811000D02*
X152005000Y-115811000D01*
X156044000Y-115771000D02*
X151956000Y-115771000D01*
X156092000Y-115731000D02*
X151908000Y-115731000D01*
X156137000Y-115691000D02*
X151863000Y-115691000D01*
X156182000Y-115651000D02*
X151818000Y-115651000D01*
X156224000Y-115611000D02*
X151776000Y-115611000D01*
X156265000Y-115571000D02*
X151735000Y-115571000D01*
X152960000Y-115531000D02*
X151695000Y-115531000D01*
X156305000Y-115531000D02*
X155040000Y-115531000D01*
X152960000Y-115491000D02*
X151657000Y-115491000D01*
X156343000Y-115491000D02*
X155040000Y-115491000D01*
X152960000Y-115451000D02*
X151620000Y-115451000D01*
X156380000Y-115451000D02*
X155040000Y-115451000D01*
X152960000Y-115411000D02*
X151584000Y-115411000D01*
X156416000Y-115411000D02*
X155040000Y-115411000D01*
X152960000Y-115371000D02*
X151550000Y-115371000D01*
X156450000Y-115371000D02*
X155040000Y-115371000D01*
X152960000Y-115331000D02*
X151516000Y-115331000D01*
X156484000Y-115331000D02*
X155040000Y-115331000D01*
X152960000Y-115291000D02*
X151484000Y-115291000D01*
X156516000Y-115291000D02*
X155040000Y-115291000D01*
X152960000Y-115251000D02*
X151452000Y-115251000D01*
X156548000Y-115251000D02*
X155040000Y-115251000D01*
X152960000Y-115211000D02*
X151422000Y-115211000D01*
X156578000Y-115211000D02*
X155040000Y-115211000D01*
X152960000Y-115171000D02*
X151393000Y-115171000D01*
X156607000Y-115171000D02*
X155040000Y-115171000D01*
X152960000Y-115131000D02*
X151364000Y-115131000D01*
X156636000Y-115131000D02*
X155040000Y-115131000D01*
X152960000Y-115091000D02*
X151336000Y-115091000D01*
X156664000Y-115091000D02*
X155040000Y-115091000D01*
X152960000Y-115051000D02*
X151310000Y-115051000D01*
X156690000Y-115051000D02*
X155040000Y-115051000D01*
X152960000Y-115011000D02*
X151284000Y-115011000D01*
X156716000Y-115011000D02*
X155040000Y-115011000D01*
X152960000Y-114971000D02*
X151258000Y-114971000D01*
X156742000Y-114971000D02*
X155040000Y-114971000D01*
X152960000Y-114931000D02*
X151234000Y-114931000D01*
X156766000Y-114931000D02*
X155040000Y-114931000D01*
X152960000Y-114891000D02*
X151210000Y-114891000D01*
X156790000Y-114891000D02*
X155040000Y-114891000D01*
X152960000Y-114851000D02*
X151188000Y-114851000D01*
X156812000Y-114851000D02*
X155040000Y-114851000D01*
X152960000Y-114811000D02*
X151166000Y-114811000D01*
X156834000Y-114811000D02*
X155040000Y-114811000D01*
X152960000Y-114771000D02*
X151144000Y-114771000D01*
X156856000Y-114771000D02*
X155040000Y-114771000D01*
X152960000Y-114731000D02*
X151124000Y-114731000D01*
X156876000Y-114731000D02*
X155040000Y-114731000D01*
X152960000Y-114691000D02*
X151104000Y-114691000D01*
X156896000Y-114691000D02*
X155040000Y-114691000D01*
X152960000Y-114651000D02*
X151084000Y-114651000D01*
X156916000Y-114651000D02*
X155040000Y-114651000D01*
X152960000Y-114611000D02*
X151066000Y-114611000D01*
X156934000Y-114611000D02*
X155040000Y-114611000D01*
X152960000Y-114571000D02*
X151048000Y-114571000D01*
X156952000Y-114571000D02*
X155040000Y-114571000D01*
X152960000Y-114531000D02*
X151030000Y-114531000D01*
X156970000Y-114531000D02*
X155040000Y-114531000D01*
X152960000Y-114491000D02*
X151014000Y-114491000D01*
X156986000Y-114491000D02*
X155040000Y-114491000D01*
X152960000Y-114451000D02*
X150998000Y-114451000D01*
X157002000Y-114451000D02*
X155040000Y-114451000D01*
X152960000Y-114411000D02*
X150982000Y-114411000D01*
X157018000Y-114411000D02*
X155040000Y-114411000D01*
X152960000Y-114371000D02*
X150967000Y-114371000D01*
X157033000Y-114371000D02*
X155040000Y-114371000D01*
X152960000Y-114331000D02*
X150953000Y-114331000D01*
X157047000Y-114331000D02*
X155040000Y-114331000D01*
X152960000Y-114291000D02*
X150939000Y-114291000D01*
X157061000Y-114291000D02*
X155040000Y-114291000D01*
X152960000Y-114251000D02*
X150926000Y-114251000D01*
X157074000Y-114251000D02*
X155040000Y-114251000D01*
X152960000Y-114211000D02*
X150914000Y-114211000D01*
X157086000Y-114211000D02*
X155040000Y-114211000D01*
X152960000Y-114171000D02*
X150902000Y-114171000D01*
X157098000Y-114171000D02*
X155040000Y-114171000D01*
X152960000Y-114131000D02*
X150890000Y-114131000D01*
X157110000Y-114131000D02*
X155040000Y-114131000D01*
X152960000Y-114091000D02*
X150879000Y-114091000D01*
X157121000Y-114091000D02*
X155040000Y-114091000D01*
X152960000Y-114051000D02*
X150869000Y-114051000D01*
X157131000Y-114051000D02*
X155040000Y-114051000D01*
X152960000Y-114011000D02*
X150859000Y-114011000D01*
X157141000Y-114011000D02*
X155040000Y-114011000D01*
X152960000Y-113971000D02*
X150850000Y-113971000D01*
X157150000Y-113971000D02*
X155040000Y-113971000D01*
X152960000Y-113930000D02*
X150841000Y-113930000D01*
X157159000Y-113930000D02*
X155040000Y-113930000D01*
X152960000Y-113890000D02*
X150833000Y-113890000D01*
X157167000Y-113890000D02*
X155040000Y-113890000D01*
X152960000Y-113850000D02*
X150825000Y-113850000D01*
X157175000Y-113850000D02*
X155040000Y-113850000D01*
X152960000Y-113810000D02*
X150818000Y-113810000D01*
X157182000Y-113810000D02*
X155040000Y-113810000D01*
X152960000Y-113770000D02*
X150811000Y-113770000D01*
X157189000Y-113770000D02*
X155040000Y-113770000D01*
X152960000Y-113730000D02*
X150805000Y-113730000D01*
X157195000Y-113730000D02*
X155040000Y-113730000D01*
X152960000Y-113690000D02*
X150799000Y-113690000D01*
X157201000Y-113690000D02*
X155040000Y-113690000D01*
X152960000Y-113650000D02*
X150794000Y-113650000D01*
X157206000Y-113650000D02*
X155040000Y-113650000D01*
X152960000Y-113610000D02*
X150789000Y-113610000D01*
X157211000Y-113610000D02*
X155040000Y-113610000D01*
X152960000Y-113570000D02*
X150785000Y-113570000D01*
X157215000Y-113570000D02*
X155040000Y-113570000D01*
X152960000Y-113530000D02*
X150782000Y-113530000D01*
X157218000Y-113530000D02*
X155040000Y-113530000D01*
X152960000Y-113490000D02*
X150778000Y-113490000D01*
X157222000Y-113490000D02*
X155040000Y-113490000D01*
X157224000Y-113450000D02*
X150776000Y-113450000D01*
X157227000Y-113410000D02*
X150773000Y-113410000D01*
X157228000Y-113370000D02*
X150772000Y-113370000D01*
X157230000Y-113330000D02*
X150770000Y-113330000D01*
X157230000Y-113290000D02*
X150770000Y-113290000D01*
X157230000Y-113250000D02*
X150770000Y-113250000D01*
X157270000Y-113250000D02*
G75*
G03*
X157270000Y-113250000I-3270000J0D01*
G01*
X162000000Y-103880000D02*
X162000000Y-104650000D01*
X162000000Y-111960000D02*
X162000000Y-111190000D01*
X160630000Y-104650000D02*
X160630000Y-111190000D01*
X163370000Y-104650000D02*
X160630000Y-104650000D01*
X163370000Y-111190000D02*
X163370000Y-104650000D01*
X160630000Y-111190000D02*
X163370000Y-111190000D01*
D12*
X137270000Y-100207000D02*
X137270000Y-89793000D01*
X121395000Y-89793000D02*
X121395000Y-100207000D01*
X137270000Y-89793000D02*
X124824000Y-89793000D01*
X123300000Y-89793000D02*
X121395000Y-89793000D01*
X137270000Y-100207000D02*
X124824000Y-100207000D01*
X123300000Y-100207000D02*
X121395000Y-100207000D01*
D13*
X136635000Y-99572000D02*
X136635000Y-90428000D01*
X128380000Y-90428000D02*
X136635000Y-90428000D01*
X128380000Y-90428000D02*
X128380000Y-99572000D01*
X136635000Y-99572000D02*
X128380000Y-99572000D01*
D12*
X126627400Y-95000000D02*
G75*
G03*
X126627400Y-95000000I-1803400J0D01*
G01*
D14*
G36*
X140064000Y-92840260D02*
G01*
X140064000Y-92079000D01*
X140700610Y-92079000D01*
X140700610Y-92840260D01*
X140064000Y-92840260D01*
G37*
X140064000Y-92840260D02*
X140064000Y-92079000D01*
X140700610Y-92079000D01*
X140700610Y-92840260D01*
X140064000Y-92840260D01*
G36*
X140064000Y-95381177D02*
G01*
X140064000Y-94619000D01*
X140701190Y-94619000D01*
X140701190Y-95381177D01*
X140064000Y-95381177D01*
G37*
X140064000Y-95381177D02*
X140064000Y-94619000D01*
X140701190Y-94619000D01*
X140701190Y-95381177D01*
X140064000Y-95381177D01*
G36*
X140064000Y-97922290D02*
G01*
X140064000Y-97159000D01*
X140701080Y-97159000D01*
X140701080Y-97922290D01*
X140064000Y-97922290D01*
G37*
X140064000Y-97922290D02*
X140064000Y-97159000D01*
X140701080Y-97159000D01*
X140701080Y-97922290D01*
X140064000Y-97922290D01*
G36*
X137270000Y-98180540D02*
G01*
X137270000Y-96905000D01*
X140071090Y-96905000D01*
X140071090Y-98180540D01*
X137270000Y-98180540D01*
G37*
X137270000Y-98180540D02*
X137270000Y-96905000D01*
X140071090Y-96905000D01*
X140071090Y-98180540D01*
X137270000Y-98180540D01*
G36*
X137270000Y-95635881D02*
G01*
X137270000Y-94365000D01*
X140069640Y-94365000D01*
X140069640Y-95635881D01*
X137270000Y-95635881D01*
G37*
X137270000Y-95635881D02*
X137270000Y-94365000D01*
X140069640Y-94365000D01*
X140069640Y-95635881D01*
X137270000Y-95635881D01*
G36*
X137270000Y-93092870D02*
G01*
X137270000Y-91825000D01*
X140068550Y-91825000D01*
X140068550Y-93092870D01*
X137270000Y-93092870D01*
G37*
X137270000Y-93092870D02*
X137270000Y-91825000D01*
X140068550Y-91825000D01*
X140068550Y-93092870D01*
X137270000Y-93092870D01*
D10*
X151846000Y-106935241D02*
X152476000Y-106935241D01*
X152161000Y-107250241D02*
X152161000Y-106620241D01*
X153598000Y-100509000D02*
X154402000Y-100509000D01*
X153367000Y-100549000D02*
X154633000Y-100549000D01*
X153198000Y-100589000D02*
X154802000Y-100589000D01*
X153060000Y-100629000D02*
X154940000Y-100629000D01*
X152941000Y-100669000D02*
X155059000Y-100669000D01*
X152835000Y-100709000D02*
X155165000Y-100709000D01*
X152738000Y-100749000D02*
X155262000Y-100749000D01*
X152650000Y-100789000D02*
X155350000Y-100789000D01*
X152568000Y-100829000D02*
X155432000Y-100829000D01*
X152491000Y-100869000D02*
X155509000Y-100869000D01*
X152419000Y-100909000D02*
X155581000Y-100909000D01*
X152350000Y-100949000D02*
X155650000Y-100949000D01*
X152286000Y-100989000D02*
X155714000Y-100989000D01*
X152224000Y-101029000D02*
X155776000Y-101029000D01*
X152166000Y-101069000D02*
X155834000Y-101069000D01*
X152110000Y-101109000D02*
X155890000Y-101109000D01*
X152056000Y-101149000D02*
X155944000Y-101149000D01*
X152005000Y-101189000D02*
X155995000Y-101189000D01*
X151956000Y-101229000D02*
X156044000Y-101229000D01*
X151908000Y-101269000D02*
X156092000Y-101269000D01*
X151863000Y-101309000D02*
X156137000Y-101309000D01*
X151818000Y-101349000D02*
X156182000Y-101349000D01*
X151776000Y-101389000D02*
X156224000Y-101389000D01*
X151735000Y-101429000D02*
X156265000Y-101429000D01*
X155040000Y-101469000D02*
X156305000Y-101469000D01*
X151695000Y-101469000D02*
X152960000Y-101469000D01*
X155040000Y-101509000D02*
X156343000Y-101509000D01*
X151657000Y-101509000D02*
X152960000Y-101509000D01*
X155040000Y-101549000D02*
X156380000Y-101549000D01*
X151620000Y-101549000D02*
X152960000Y-101549000D01*
X155040000Y-101589000D02*
X156416000Y-101589000D01*
X151584000Y-101589000D02*
X152960000Y-101589000D01*
X155040000Y-101629000D02*
X156450000Y-101629000D01*
X151550000Y-101629000D02*
X152960000Y-101629000D01*
X155040000Y-101669000D02*
X156484000Y-101669000D01*
X151516000Y-101669000D02*
X152960000Y-101669000D01*
X155040000Y-101709000D02*
X156516000Y-101709000D01*
X151484000Y-101709000D02*
X152960000Y-101709000D01*
X155040000Y-101749000D02*
X156548000Y-101749000D01*
X151452000Y-101749000D02*
X152960000Y-101749000D01*
X155040000Y-101789000D02*
X156578000Y-101789000D01*
X151422000Y-101789000D02*
X152960000Y-101789000D01*
X155040000Y-101829000D02*
X156607000Y-101829000D01*
X151393000Y-101829000D02*
X152960000Y-101829000D01*
X155040000Y-101869000D02*
X156636000Y-101869000D01*
X151364000Y-101869000D02*
X152960000Y-101869000D01*
X155040000Y-101909000D02*
X156664000Y-101909000D01*
X151336000Y-101909000D02*
X152960000Y-101909000D01*
X155040000Y-101949000D02*
X156690000Y-101949000D01*
X151310000Y-101949000D02*
X152960000Y-101949000D01*
X155040000Y-101989000D02*
X156716000Y-101989000D01*
X151284000Y-101989000D02*
X152960000Y-101989000D01*
X155040000Y-102029000D02*
X156742000Y-102029000D01*
X151258000Y-102029000D02*
X152960000Y-102029000D01*
X155040000Y-102069000D02*
X156766000Y-102069000D01*
X151234000Y-102069000D02*
X152960000Y-102069000D01*
X155040000Y-102109000D02*
X156790000Y-102109000D01*
X151210000Y-102109000D02*
X152960000Y-102109000D01*
X155040000Y-102149000D02*
X156812000Y-102149000D01*
X151188000Y-102149000D02*
X152960000Y-102149000D01*
X155040000Y-102189000D02*
X156834000Y-102189000D01*
X151166000Y-102189000D02*
X152960000Y-102189000D01*
X155040000Y-102229000D02*
X156856000Y-102229000D01*
X151144000Y-102229000D02*
X152960000Y-102229000D01*
X155040000Y-102269000D02*
X156876000Y-102269000D01*
X151124000Y-102269000D02*
X152960000Y-102269000D01*
X155040000Y-102309000D02*
X156896000Y-102309000D01*
X151104000Y-102309000D02*
X152960000Y-102309000D01*
X155040000Y-102349000D02*
X156916000Y-102349000D01*
X151084000Y-102349000D02*
X152960000Y-102349000D01*
X155040000Y-102389000D02*
X156934000Y-102389000D01*
X151066000Y-102389000D02*
X152960000Y-102389000D01*
X155040000Y-102429000D02*
X156952000Y-102429000D01*
X151048000Y-102429000D02*
X152960000Y-102429000D01*
X155040000Y-102469000D02*
X156970000Y-102469000D01*
X151030000Y-102469000D02*
X152960000Y-102469000D01*
X155040000Y-102509000D02*
X156986000Y-102509000D01*
X151014000Y-102509000D02*
X152960000Y-102509000D01*
X155040000Y-102549000D02*
X157002000Y-102549000D01*
X150998000Y-102549000D02*
X152960000Y-102549000D01*
X155040000Y-102589000D02*
X157018000Y-102589000D01*
X150982000Y-102589000D02*
X152960000Y-102589000D01*
X155040000Y-102629000D02*
X157033000Y-102629000D01*
X150967000Y-102629000D02*
X152960000Y-102629000D01*
X155040000Y-102669000D02*
X157047000Y-102669000D01*
X150953000Y-102669000D02*
X152960000Y-102669000D01*
X155040000Y-102709000D02*
X157061000Y-102709000D01*
X150939000Y-102709000D02*
X152960000Y-102709000D01*
X155040000Y-102749000D02*
X157074000Y-102749000D01*
X150926000Y-102749000D02*
X152960000Y-102749000D01*
X155040000Y-102789000D02*
X157086000Y-102789000D01*
X150914000Y-102789000D02*
X152960000Y-102789000D01*
X155040000Y-102829000D02*
X157098000Y-102829000D01*
X150902000Y-102829000D02*
X152960000Y-102829000D01*
X155040000Y-102869000D02*
X157110000Y-102869000D01*
X150890000Y-102869000D02*
X152960000Y-102869000D01*
X155040000Y-102909000D02*
X157121000Y-102909000D01*
X150879000Y-102909000D02*
X152960000Y-102909000D01*
X155040000Y-102949000D02*
X157131000Y-102949000D01*
X150869000Y-102949000D02*
X152960000Y-102949000D01*
X155040000Y-102989000D02*
X157141000Y-102989000D01*
X150859000Y-102989000D02*
X152960000Y-102989000D01*
X155040000Y-103029000D02*
X157150000Y-103029000D01*
X150850000Y-103029000D02*
X152960000Y-103029000D01*
X155040000Y-103070000D02*
X157159000Y-103070000D01*
X150841000Y-103070000D02*
X152960000Y-103070000D01*
X155040000Y-103110000D02*
X157167000Y-103110000D01*
X150833000Y-103110000D02*
X152960000Y-103110000D01*
X155040000Y-103150000D02*
X157175000Y-103150000D01*
X150825000Y-103150000D02*
X152960000Y-103150000D01*
X155040000Y-103190000D02*
X157182000Y-103190000D01*
X150818000Y-103190000D02*
X152960000Y-103190000D01*
X155040000Y-103230000D02*
X157189000Y-103230000D01*
X150811000Y-103230000D02*
X152960000Y-103230000D01*
X155040000Y-103270000D02*
X157195000Y-103270000D01*
X150805000Y-103270000D02*
X152960000Y-103270000D01*
X155040000Y-103310000D02*
X157201000Y-103310000D01*
X150799000Y-103310000D02*
X152960000Y-103310000D01*
X155040000Y-103350000D02*
X157206000Y-103350000D01*
X150794000Y-103350000D02*
X152960000Y-103350000D01*
X155040000Y-103390000D02*
X157211000Y-103390000D01*
X150789000Y-103390000D02*
X152960000Y-103390000D01*
X155040000Y-103430000D02*
X157215000Y-103430000D01*
X150785000Y-103430000D02*
X152960000Y-103430000D01*
X155040000Y-103470000D02*
X157218000Y-103470000D01*
X150782000Y-103470000D02*
X152960000Y-103470000D01*
X155040000Y-103510000D02*
X157222000Y-103510000D01*
X150778000Y-103510000D02*
X152960000Y-103510000D01*
X150776000Y-103550000D02*
X157224000Y-103550000D01*
X150773000Y-103590000D02*
X157227000Y-103590000D01*
X150772000Y-103630000D02*
X157228000Y-103630000D01*
X150770000Y-103670000D02*
X157230000Y-103670000D01*
X150770000Y-103710000D02*
X157230000Y-103710000D01*
X150770000Y-103750000D02*
X157230000Y-103750000D01*
X157270000Y-103750000D02*
G75*
G03*
X157270000Y-103750000I-3270000J0D01*
G01*
X130630000Y-112190000D02*
X133370000Y-112190000D01*
X133370000Y-112190000D02*
X133370000Y-105650000D01*
X133370000Y-105650000D02*
X130630000Y-105650000D01*
X130630000Y-105650000D02*
X130630000Y-112190000D01*
X132000000Y-112960000D02*
X132000000Y-112190000D01*
X132000000Y-104880000D02*
X132000000Y-105650000D01*
X163850000Y-96530000D02*
X163850000Y-92930000D01*
X163838478Y-96568478D02*
G75*
G02*
X159400000Y-94730000I-1838478J1838478D01*
G01*
X163838478Y-92891522D02*
G75*
G03*
X159400000Y-94730000I-1838478J-1838478D01*
G01*
X127500000Y-109730000D02*
G75*
G03*
X127500000Y-109730000I-2500000J0D01*
G01*
X123455000Y-112290000D02*
X126545000Y-112290000D01*
X125000462Y-106740000D02*
G75*
G03*
X123455170Y-112290000I-462J-2990000D01*
G01*
X124999538Y-106740000D02*
G75*
G02*
X126544830Y-112290000I462J-2990000D01*
G01*
D12*
X156950000Y-33750000D02*
X156950000Y-88150000D01*
X156950000Y-88150000D02*
X129050000Y-88150000D01*
X129050000Y-88150000D02*
X129050000Y-33750000D01*
X129050000Y-33750000D02*
X156950000Y-33750000D01*
D15*
X138550000Y-103850000D02*
X136500000Y-103850000D01*
X136500000Y-103850000D02*
X136500000Y-118150000D01*
X136500000Y-118150000D02*
X145500000Y-118150000D01*
X145500000Y-118150000D02*
X145500000Y-109600000D01*
X143450000Y-103850000D02*
X145500000Y-103850000D01*
X145500000Y-103850000D02*
X145500000Y-105100000D01*
D16*
X149382740Y-94971478D02*
X148906550Y-95304811D01*
X149382740Y-95542906D02*
X148382740Y-95542906D01*
X148382740Y-95161954D01*
X148430360Y-95066716D01*
X148477979Y-95019097D01*
X148573217Y-94971478D01*
X148716074Y-94971478D01*
X148811312Y-95019097D01*
X148858931Y-95066716D01*
X148906550Y-95161954D01*
X148906550Y-95542906D01*
X148382740Y-94685763D02*
X149382740Y-94352430D01*
X148382740Y-94019097D01*
X149382740Y-93161954D02*
X149382740Y-93733382D01*
X149382740Y-93447668D02*
X148382740Y-93447668D01*
X148525598Y-93542906D01*
X148620836Y-93638144D01*
X148668455Y-93733382D01*
X158700742Y-113338906D02*
X158748361Y-113386525D01*
X158795980Y-113529382D01*
X158795980Y-113624620D01*
X158748361Y-113767478D01*
X158653123Y-113862716D01*
X158557885Y-113910335D01*
X158367409Y-113957954D01*
X158224552Y-113957954D01*
X158034076Y-113910335D01*
X157938838Y-113862716D01*
X157843600Y-113767478D01*
X157795980Y-113624620D01*
X157795980Y-113529382D01*
X157843600Y-113386525D01*
X157891219Y-113338906D01*
X158795980Y-112386525D02*
X158795980Y-112957954D01*
X158795980Y-112672240D02*
X157795980Y-112672240D01*
X157938838Y-112767478D01*
X158034076Y-112862716D01*
X158081695Y-112957954D01*
X162367220Y-115640146D02*
X161891030Y-115973480D01*
X162367220Y-116211575D02*
X161367220Y-116211575D01*
X161367220Y-115830622D01*
X161414840Y-115735384D01*
X161462459Y-115687765D01*
X161557697Y-115640146D01*
X161700554Y-115640146D01*
X161795792Y-115687765D01*
X161843411Y-115735384D01*
X161891030Y-115830622D01*
X161891030Y-116211575D01*
X162367220Y-114687765D02*
X162367220Y-115259194D01*
X162367220Y-114973480D02*
X161367220Y-114973480D01*
X161510078Y-115068718D01*
X161605316Y-115163956D01*
X161652935Y-115259194D01*
X144881552Y-95537546D02*
X146016542Y-95537546D01*
X146150071Y-95470782D01*
X146216835Y-95404018D01*
X146283599Y-95270489D01*
X146283599Y-95003433D01*
X146216835Y-94869904D01*
X146150071Y-94803140D01*
X146016542Y-94736376D01*
X144881552Y-94736376D01*
X145348901Y-93467857D02*
X146283599Y-93467857D01*
X144814788Y-93801678D02*
X145816250Y-94135499D01*
X145816250Y-93267565D01*
X153833333Y-108357142D02*
X153785714Y-108404761D01*
X153642857Y-108452380D01*
X153547619Y-108452380D01*
X153404761Y-108404761D01*
X153309523Y-108309523D01*
X153261904Y-108214285D01*
X153214285Y-108023809D01*
X153214285Y-107880952D01*
X153261904Y-107690476D01*
X153309523Y-107595238D01*
X153404761Y-107500000D01*
X153547619Y-107452380D01*
X153642857Y-107452380D01*
X153785714Y-107500000D01*
X153833333Y-107547619D01*
X154214285Y-107547619D02*
X154261904Y-107500000D01*
X154357142Y-107452380D01*
X154595238Y-107452380D01*
X154690476Y-107500000D01*
X154738095Y-107547619D01*
X154785714Y-107642857D01*
X154785714Y-107738095D01*
X154738095Y-107880952D01*
X154166666Y-108452380D01*
X154785714Y-108452380D01*
X135026660Y-109732106D02*
X134550470Y-110065440D01*
X135026660Y-110303535D02*
X134026660Y-110303535D01*
X134026660Y-109922582D01*
X134074280Y-109827344D01*
X134121899Y-109779725D01*
X134217137Y-109732106D01*
X134359994Y-109732106D01*
X134455232Y-109779725D01*
X134502851Y-109827344D01*
X134550470Y-109922582D01*
X134550470Y-110303535D01*
X134121899Y-109351154D02*
X134074280Y-109303535D01*
X134026660Y-109208297D01*
X134026660Y-108970201D01*
X134074280Y-108874963D01*
X134121899Y-108827344D01*
X134217137Y-108779725D01*
X134312375Y-108779725D01*
X134455232Y-108827344D01*
X135026660Y-109398773D01*
X135026660Y-108779725D01*
X161452380Y-99761904D02*
X162261904Y-99761904D01*
X162357142Y-99714285D01*
X162404761Y-99666666D01*
X162452380Y-99571428D01*
X162452380Y-99380952D01*
X162404761Y-99285714D01*
X162357142Y-99238095D01*
X162261904Y-99190476D01*
X161452380Y-99190476D01*
X161452380Y-98809523D02*
X161452380Y-98190476D01*
X161833333Y-98523809D01*
X161833333Y-98380952D01*
X161880952Y-98285714D01*
X161928571Y-98238095D01*
X162023809Y-98190476D01*
X162261904Y-98190476D01*
X162357142Y-98238095D01*
X162404761Y-98285714D01*
X162452380Y-98380952D01*
X162452380Y-98666666D01*
X162404761Y-98761904D01*
X162357142Y-98809523D01*
X129606300Y-110303535D02*
X128606300Y-110303535D01*
X128606300Y-110065440D01*
X128653920Y-109922582D01*
X128749158Y-109827344D01*
X128844396Y-109779725D01*
X129034872Y-109732106D01*
X129177729Y-109732106D01*
X129368205Y-109779725D01*
X129463443Y-109827344D01*
X129558681Y-109922582D01*
X129606300Y-110065440D01*
X129606300Y-110303535D01*
X129606300Y-108779725D02*
X129606300Y-109351154D01*
X129606300Y-109065440D02*
X128606300Y-109065440D01*
X128749158Y-109160678D01*
X128844396Y-109255916D01*
X128892015Y-109351154D01*
X157628129Y-88117878D02*
X158437965Y-88117878D01*
X158533240Y-88070241D01*
X158580878Y-88022604D01*
X158628515Y-87927329D01*
X158628515Y-87736779D01*
X158580878Y-87641504D01*
X158533240Y-87593867D01*
X158437965Y-87546229D01*
X157628129Y-87546229D01*
X158628515Y-86545843D02*
X158628515Y-87117492D01*
X158628515Y-86831668D02*
X157628129Y-86831668D01*
X157771041Y-86926943D01*
X157866316Y-87022218D01*
X157913954Y-87117492D01*
X141123404Y-101533580D02*
X142266790Y-101533580D01*
X142495467Y-101609805D01*
X142647918Y-101762257D01*
X142724144Y-101990934D01*
X142724144Y-102143385D01*
X142724144Y-99932840D02*
X142724144Y-100847548D01*
X142724144Y-100390194D02*
X141123404Y-100390194D01*
X141352081Y-100542645D01*
X141504532Y-100695097D01*
X141580758Y-100847548D01*
M02*
